<svg xmlns="http://www.w3.org/2000/svg" version="1.1" width="512" height="512" x="0" y="0" viewBox="0 0 682.66669 682.66669" style="enable-background:new 0 0 512 512" xml:space="preserve" class=""><g><defs id="defs5446"><clipPath clipPathUnits="userSpaceOnUse" id="clipPath5456"><path d="M 0,512 H 512 V 0 H 0 Z" id="path5454" fill="#000000"></path></clipPath></defs><g id="g5448" transform="matrix(1.3333333,0,0,-1.3333333,0,682.66667)"><g id="g5450"><g id="g5452" clip-path="url(#clipPath5456)"><g id="g5458" transform="translate(456.249,407.4102)"><path d="m 0,0 c -3.716,19.061 -20.496,33.449 -40.644,33.449 -0.029,0 -0.057,-0.002 -0.086,-0.002 -3.538,12.814 -15.27,22.226 -29.208,22.226 0,22.874 -18.542,41.417 -41.416,41.417 -21.451,0 -39.091,-16.306 -41.205,-37.198 -2.679,0.545 -5.453,0.832 -8.294,0.832 -19.046,0 -35.079,-12.861 -39.915,-30.37 -35.643,-1.335 -64.131,-30.636 -64.131,-66.606 0,-36.821 29.849,-66.67 66.67,-66.67 H -3.268 c 28.454,0 51.519,23.066 51.519,51.518 C 48.251,-24.05 26.929,-1.687 0,0" style="fill-opacity:1;fill-rule:nonzero;stroke:none" id="path5460" fill="#d3effd" class=""></path></g><g id="g5462" transform="translate(371.7021,315.7803)"><path d="m 0,0 c 0,25.604 -11.231,49.346 -30.207,65.481 -0.267,34.411 -28.342,62.321 -62.813,62.321 -4.051,0 -8.083,-0.395 -12.034,-1.166 -2.283,1.801 -4.638,3.499 -7.041,5.124 -1.768,-3.035 -3.169,-6.313 -4.126,-9.776 -35.643,-1.336 -64.132,-30.636 -64.132,-66.606 0,-36.821 29.85,-66.67 66.671,-66.67 H -0.764 C -0.276,-7.594 0,-3.83 0,0" style="fill-opacity:1;fill-rule:nonzero;stroke:none" id="path5464" fill="#b2e5fb" class=""></path></g><g id="g5466" transform="translate(313.2246,368.8213)"><path d="m 0,0 c 1.295,3.744 2.008,7.761 2.008,11.946 0,20.186 -16.364,36.55 -36.55,36.55 -6.611,0 -12.806,-1.764 -18.156,-4.833 -16.956,18.084 -41.058,29.386 -67.803,29.386 -42.163,0 -77.761,-28.08 -89.131,-66.556 -20.56,-1.806 -38.132,-14.011 -47.419,-31.333 -1.501,0.154 -3.023,0.236 -4.565,0.236 -24.361,0 -44.109,-19.749 -44.109,-44.109 0,-24.36 19.748,-44.108 44.109,-44.108 h 234.05 c 33.015,0 59.78,26.764 59.78,59.78 C 32.214,-29.971 19.138,-9.968 0,0" style="fill-opacity:1;fill-rule:nonzero;stroke:none" id="path5468" fill="#e6f7fe" class=""></path></g><g id="g5470" transform="translate(313.2246,368.8213)"><path d="m 0,0 c 1.295,3.744 2.008,7.761 2.008,11.946 0,20.186 -16.364,36.55 -36.55,36.55 -0.907,0 -1.804,-0.04 -2.693,-0.104 3.04,-11.133 4.672,-22.847 4.672,-34.943 0,-59.254 -38.947,-109.409 -92.636,-126.27 h 97.633 c 33.015,0 59.78,26.764 59.78,59.78 C 32.214,-29.971 19.138,-9.968 0,0" style="fill-opacity:1;fill-rule:nonzero;stroke:none" id="path5472" fill="#d3effd" class=""></path></g><g id="g5474" transform="translate(443.8906,256)"><path d="m 0,0 c 0,-8.927 -7.236,-16.163 -16.163,-16.163 -8.926,0 -16.162,7.236 -16.162,16.163 0,8.927 7.236,16.163 16.162,16.163 C -7.236,16.163 0,8.927 0,0" style="fill-opacity:1;fill-rule:nonzero;stroke:none" id="path5476" fill="#e6f7fe" class=""></path></g><g id="g5478" transform="translate(288.3252,176.1973)"><path d="m 0,0 c 0,-8.927 -7.236,-16.163 -16.162,-16.163 -8.927,0 -16.163,7.236 -16.163,16.163 0,8.926 7.236,16.162 16.163,16.162 C -7.236,16.162 0,8.926 0,0" style="fill-opacity:1;fill-rule:nonzero;stroke:none" id="path5480" fill="#e6f7fe" class=""></path></g><g id="g5482" transform="translate(504.5,70.1299)"><path d="m 0,0 c 0,-8.926 -7.236,-16.162 -16.163,-16.162 -8.926,0 -16.162,7.236 -16.162,16.162 0,8.927 7.236,16.163 16.162,16.163 C -7.236,16.163 0,8.927 0,0" style="fill-opacity:1;fill-rule:nonzero;stroke:none" id="path5484" fill="#e6f7fe" class=""></path></g><g id="g5486" transform="translate(86.2925,207.5117)"><path d="m 0,0 c 0,-8.926 -7.236,-16.162 -16.163,-16.162 -8.926,0 -16.162,7.236 -16.162,16.162 0,8.927 7.236,16.163 16.162,16.163 C -7.236,16.163 0,8.927 0,0" style="fill-opacity:1;fill-rule:nonzero;stroke:none" id="path5488" fill="#e6f7fe" class=""></path></g><g id="g5490" transform="translate(345.9043,167.1055)"><path d="M 0,0 C 0,13.39 10.854,24.244 24.244,24.244 37.634,24.244 48.488,13.39 48.488,0 48.488,-13.39 37.634,-24.244 24.244,-24.244 10.854,-24.244 0,-13.39 0,0" style="fill-opacity:1;fill-rule:nonzero;stroke:none" id="path5492" fill="#b2e5fb" class=""></path></g><g id="g5494" transform="translate(256,31.7441)"><path d="m 0,0 c 0,-13.39 -10.854,-24.244 -24.244,-24.244 -13.389,0 -24.244,10.854 -24.244,24.244 0,13.39 10.855,24.244 24.244,24.244 C -10.854,24.244 0,13.39 0,0" style="fill-opacity:1;fill-rule:nonzero;stroke:none" id="path5496" fill="#e6f7fe" class=""></path></g><g id="g5498" transform="translate(222.6646,129.7295)"><path d="m 0,0 c 0,-8.926 -7.236,-16.162 -16.163,-16.162 -8.926,0 -16.162,7.236 -16.162,16.162 0,8.927 7.236,16.163 16.162,16.163 C -7.236,16.163 0,8.927 0,0" style="fill-opacity:1;fill-rule:nonzero;stroke:none" id="path5500" fill="#b2e5fb" class=""></path></g><g id="g5502" transform="translate(94.374,31.7441)"><path d="m 0,0 c 0,-13.39 -10.854,-24.244 -24.244,-24.244 -13.389,0 -24.244,10.854 -24.244,24.244 0,13.39 10.855,24.244 24.244,24.244 C -10.854,24.244 0,13.39 0,0" style="fill-opacity:1;fill-rule:nonzero;stroke:none" id="path5504" fill="#b2e5fb" class=""></path></g><g id="g5506" transform="translate(200.4409,212.5635)"><path d="m 0,0 c 0,-5.579 -4.522,-10.103 -10.102,-10.103 -5.579,0 -10.101,4.524 -10.101,10.103 0,5.578 4.522,10.102 10.101,10.102 C -4.522,10.102 0,5.578 0,0" style="fill-opacity:1;fill-rule:nonzero;stroke:none" id="path5508" fill="#000000"></path></g><g id="g5510" transform="translate(311.5586,111.5469)"><path d="m 0,0 c 0,-5.579 -4.522,-10.102 -10.102,-10.102 -5.579,0 -10.101,4.523 -10.101,10.102 0,5.579 4.522,10.102 10.101,10.102 C -4.522,10.102 0,5.579 0,0" style="fill-opacity:1;fill-rule:nonzero;stroke:none" id="path5512" fill="#000000"></path></g><g id="g5514" transform="translate(329.7422,220.6445)"><path d="m 0,0 c 0,5.579 4.522,10.102 10.102,10.102 5.579,0 10.101,-4.523 10.101,-10.102 0,-5.579 -4.522,-10.102 -10.101,-10.102 C 4.522,-10.102 0,-5.579 0,0" style="fill-opacity:1;fill-rule:nonzero;stroke:none" id="path5516" fill="#000000"></path></g><g id="g5518" transform="translate(477.2256,182.2578)"><path d="m 0,0 c 0,-5.579 -4.522,-10.102 -10.102,-10.102 -5.579,0 -10.101,4.523 -10.101,10.102 0,5.579 4.522,10.102 10.101,10.102 C -4.522,10.102 0,5.579 0,0" style="fill-opacity:1;fill-rule:nonzero;stroke:none" id="path5520" fill="#000000"></path></g><g id="g5522" transform="translate(159.0244,50.9365)"><path d="m 0,0 c 0,-5.578 -4.522,-10.102 -10.102,-10.102 -5.579,0 -10.101,4.524 -10.101,10.102 0,5.579 4.522,10.103 10.101,10.103 C -4.522,10.103 0,5.579 0,0" style="fill-opacity:1;fill-rule:nonzero;stroke:none" id="path5524" fill="#000000"></path></g><g id="g5526" transform="translate(27.7031,164.0752)"><path d="m 0,0 c 0,-5.579 -4.522,-10.102 -10.102,-10.102 -5.579,0 -10.101,4.523 -10.101,10.102 0,5.579 4.522,10.102 10.101,10.102 C -4.522,10.102 0,5.579 0,0" style="fill-opacity:1;fill-rule:nonzero;stroke:none" id="path5528" fill="#000000"></path></g><g id="g5530" transform="translate(136.8301,256)"><path d="m 0,0 h 148.83 c 33.01,0 59.78,26.76 59.78,59.78 0,23.07 -13.08,43.07 -32.22,53.04 1.299,3.75 2.01,7.76 2.01,11.95 0,20.18 -16.36,36.55 -36.55,36.55 -6.61,0 -12.8,-1.77 -18.15,-4.84 -16.96,18.09 -41.06,29.39 -67.81,29.39 -42.16,0 -77.76,-28.08 -89.13,-66.56 -20.56,-1.8 -38.13,-14.01 -47.42,-31.33 -1.5,0.16 -3.02,0.24 -4.56,0.24 -24.36,0 -44.11,-19.75 -44.11,-44.11 C -129.33,19.75 -109.58,0 -85.22,0 H -35" style="stroke-width:15;stroke-linecap:round;stroke-linejoin:round;stroke-miterlimit:10;stroke-dasharray:none;stroke-opacity:1" id="path5532" fill="none" stroke="#000000" stroke-width="15" stroke-linecap="round" stroke-linejoin="round" stroke-miterlimit="10" stroke-dasharray="none" stroke-opacity="" class=""></path></g><g id="g5534" transform="translate(382.4297,480.5996)"><path d="m 0,0 c 2.49,-5.319 3.88,-11.26 3.88,-17.52 13.94,0 25.671,-9.41 29.2,-22.219 h 0.101 c 20.139,0 36.929,-14.38 40.63,-33.45 26.939,-1.68 48.259,-24.05 48.259,-51.401 0,-28.46 -23.059,-51.519 -51.519,-51.519 h -25.25" style="stroke-width:15;stroke-linecap:round;stroke-linejoin:round;stroke-miterlimit:10;stroke-dasharray:none;stroke-opacity:1" id="path5536" fill="none" stroke="#000000" stroke-width="15" stroke-linecap="round" stroke-linejoin="round" stroke-miterlimit="10" stroke-dasharray="none" stroke-opacity="" class=""></path></g><g id="g5538" transform="translate(232.7202,432.8496)"><path d="m 0,0 c 7.06,2.9 14.72,4.62 22.76,4.92 4.829,17.5 20.869,30.36 39.92,30.36 2.83,0 5.61,-0.28 8.29,-0.82 2.11,20.891 19.76,37.19 41.199,37.19 3.941,0 7.75,-0.549 11.361,-1.57" style="stroke-width:15;stroke-linecap:round;stroke-linejoin:round;stroke-miterlimit:10;stroke-dasharray:none;stroke-opacity:1" id="path5540" fill="none" stroke="#000000" stroke-width="15" stroke-linecap="round" stroke-linejoin="round" stroke-miterlimit="10" stroke-dasharray="none" stroke-opacity="" class=""></path></g><g id="g5542" transform="translate(392.7305,304.4902)"><path d="M 0,0 H -48.36" style="stroke-width:15;stroke-linecap:round;stroke-linejoin:round;stroke-miterlimit:10;stroke-dasharray:none;stroke-opacity:1" id="path5544" fill="none" stroke="#000000" stroke-width="15" stroke-linecap="round" stroke-linejoin="round" stroke-miterlimit="10" stroke-dasharray="none" stroke-opacity="" class=""></path></g><g id="g5546" transform="translate(443.8906,256)"><path d="m 0,0 c 0,-8.927 -7.236,-16.163 -16.163,-16.163 -8.926,0 -16.162,7.236 -16.162,16.163 0,8.927 7.236,16.163 16.162,16.163 C -7.236,16.163 0,8.927 0,0 Z" style="stroke-width:15;stroke-linecap:round;stroke-linejoin:round;stroke-miterlimit:10;stroke-dasharray:none;stroke-opacity:1" id="path5548" fill="none" stroke="#000000" stroke-width="15" stroke-linecap="round" stroke-linejoin="round" stroke-miterlimit="10" stroke-dasharray="none" stroke-opacity="" class=""></path></g><g id="g5550" transform="translate(222.6646,129.7295)"><path d="m 0,0 c 0,-8.926 -7.236,-16.162 -16.163,-16.162 -8.926,0 -16.162,7.236 -16.162,16.162 0,8.927 7.236,16.163 16.162,16.163 C -7.236,16.163 0,8.927 0,0 Z" style="stroke-width:15;stroke-linecap:round;stroke-linejoin:round;stroke-miterlimit:10;stroke-dasharray:none;stroke-opacity:1" id="path5552" fill="none" stroke="#000000" stroke-width="15" stroke-linecap="round" stroke-linejoin="round" stroke-miterlimit="10" stroke-dasharray="none" stroke-opacity="" class=""></path></g><g id="g5554" transform="translate(288.3252,176.1973)"><path d="m 0,0 c 0,-8.927 -7.236,-16.163 -16.162,-16.163 -8.927,0 -16.163,7.236 -16.163,16.163 0,8.926 7.236,16.162 16.163,16.162 C -7.236,16.162 0,8.926 0,0 Z" style="stroke-width:15;stroke-linecap:round;stroke-linejoin:round;stroke-miterlimit:10;stroke-dasharray:none;stroke-opacity:1" id="path5556" fill="none" stroke="#000000" stroke-width="15" stroke-linecap="round" stroke-linejoin="round" stroke-miterlimit="10" stroke-dasharray="none" stroke-opacity="" class=""></path></g><g id="g5558" transform="translate(504.5,70.1299)"><path d="m 0,0 c 0,-8.926 -7.236,-16.162 -16.163,-16.162 -8.926,0 -16.162,7.236 -16.162,16.162 0,8.927 7.236,16.163 16.162,16.163 C -7.236,16.163 0,8.927 0,0 Z" style="stroke-width:15;stroke-linecap:round;stroke-linejoin:round;stroke-miterlimit:10;stroke-dasharray:none;stroke-opacity:1" id="path5560" fill="none" stroke="#000000" stroke-width="15" stroke-linecap="round" stroke-linejoin="round" stroke-miterlimit="10" stroke-dasharray="none" stroke-opacity="" class=""></path></g><g id="g5562" transform="translate(86.2925,207.5117)"><path d="m 0,0 c 0,-8.926 -7.236,-16.162 -16.163,-16.162 -8.926,0 -16.162,7.236 -16.162,16.162 0,8.927 7.236,16.163 16.162,16.163 C -7.236,16.163 0,8.927 0,0 Z" style="stroke-width:15;stroke-linecap:round;stroke-linejoin:round;stroke-miterlimit:10;stroke-dasharray:none;stroke-opacity:1" id="path5564" fill="none" stroke="#000000" stroke-width="15" stroke-linecap="round" stroke-linejoin="round" stroke-miterlimit="10" stroke-dasharray="none" stroke-opacity="" class=""></path></g><g id="g5566" transform="translate(345.9043,167.1055)"><path d="M 0,0 C 0,13.39 10.854,24.244 24.244,24.244 37.634,24.244 48.488,13.39 48.488,0 48.488,-13.39 37.634,-24.244 24.244,-24.244 10.854,-24.244 0,-13.39 0,0 Z" style="stroke-width:15;stroke-linecap:round;stroke-linejoin:round;stroke-miterlimit:10;stroke-dasharray:none;stroke-opacity:1" id="path5568" fill="none" stroke="#000000" stroke-width="15" stroke-linecap="round" stroke-linejoin="round" stroke-miterlimit="10" stroke-dasharray="none" stroke-opacity="" class=""></path></g><g id="g5570" transform="translate(94.374,31.7441)"><path d="m 0,0 c 0,-13.39 -10.854,-24.244 -24.244,-24.244 -13.389,0 -24.244,10.854 -24.244,24.244 0,13.39 10.855,24.244 24.244,24.244 C -10.854,24.244 0,13.39 0,0 Z" style="stroke-width:15;stroke-linecap:round;stroke-linejoin:round;stroke-miterlimit:10;stroke-dasharray:none;stroke-opacity:1" id="path5572" fill="none" stroke="#000000" stroke-width="15" stroke-linecap="round" stroke-linejoin="round" stroke-miterlimit="10" stroke-dasharray="none" stroke-opacity="" class=""></path></g><g id="g5574" transform="translate(256,31.7441)"><path d="m 0,0 c 0,-13.39 -10.854,-24.244 -24.244,-24.244 -13.389,0 -24.244,10.854 -24.244,24.244 0,13.39 10.855,24.244 24.244,24.244 C -10.854,24.244 0,13.39 0,0 Z" style="stroke-width:15;stroke-linecap:round;stroke-linejoin:round;stroke-miterlimit:10;stroke-dasharray:none;stroke-opacity:1" id="path5576" fill="none" stroke="#000000" stroke-width="15" stroke-linecap="round" stroke-linejoin="round" stroke-miterlimit="10" stroke-dasharray="none" stroke-opacity="" class=""></path></g><g id="g5578" transform="translate(399.9033,110.7207)"><path d="m 0,0 c 4.434,4.853 10.813,7.897 17.904,7.897 13.39,0 24.244,-10.854 24.244,-24.244 0,-13.389 -10.854,-24.244 -24.244,-24.244 h -78.379" style="stroke-width:15;stroke-linecap:round;stroke-linejoin:round;stroke-miterlimit:10;stroke-dasharray:none;stroke-opacity:1" id="path5580" fill="none" stroke="#000000" stroke-width="15" stroke-linecap="round" stroke-linejoin="round" stroke-miterlimit="10" stroke-dasharray="none" stroke-opacity="" class=""></path></g><g id="g5582" transform="translate(394.9219,37.8047)"><path d="M 0,0 H 19.025" style="stroke-width:15;stroke-linecap:round;stroke-linejoin:round;stroke-miterlimit:10;stroke-dasharray:none;stroke-opacity:1" id="path5584" fill="none" stroke="#000000" stroke-width="15" stroke-linecap="round" stroke-linejoin="round" stroke-miterlimit="10" stroke-dasharray="none" stroke-opacity="" class=""></path></g><g id="g5586" transform="translate(314.5898,37.8047)"><path d="M 0,0 H 48.203" style="stroke-width:15;stroke-linecap:round;stroke-linejoin:round;stroke-miterlimit:10;stroke-dasharray:none;stroke-opacity:1" id="path5588" fill="none" stroke="#000000" stroke-width="15" stroke-linecap="round" stroke-linejoin="round" stroke-miterlimit="10" stroke-dasharray="none" stroke-opacity="" class=""></path></g><g id="g5590" transform="translate(110.9971,169.3105)"><path d="m 0,0 c 4.433,4.853 10.813,7.896 17.904,7.896 13.389,0 24.244,-10.854 24.244,-24.243 0,-13.389 -10.855,-24.244 -24.244,-24.244 h -78.379" style="stroke-width:15;stroke-linecap:round;stroke-linejoin:round;stroke-miterlimit:10;stroke-dasharray:none;stroke-opacity:1" id="path5592" fill="none" stroke="#000000" stroke-width="15" stroke-linecap="round" stroke-linejoin="round" stroke-miterlimit="10" stroke-dasharray="none" stroke-opacity="" class=""></path></g><g id="g5594" transform="translate(106.0156,96.3945)"><path d="M 0,0 H 19.025" style="stroke-width:15;stroke-linecap:round;stroke-linejoin:round;stroke-miterlimit:10;stroke-dasharray:none;stroke-opacity:1" id="path5596" fill="none" stroke="#000000" stroke-width="15" stroke-linecap="round" stroke-linejoin="round" stroke-miterlimit="10" stroke-dasharray="none" stroke-opacity="" class=""></path></g><g id="g5598" transform="translate(25.6831,96.3945)"><path d="M 0,0 H 48.203" style="stroke-width:15;stroke-linecap:round;stroke-linejoin:round;stroke-miterlimit:10;stroke-dasharray:none;stroke-opacity:1" id="path5600" fill="none" stroke="#000000" stroke-width="15" stroke-linecap="round" stroke-linejoin="round" stroke-miterlimit="10" stroke-dasharray="none" stroke-opacity="" class=""></path></g></g></g></g></g></svg>