<svg xmlns="http://www.w3.org/2000/svg" version="1.1" width="512" height="512" x="0" y="0" viewBox="0 0 512 512" style="enable-background:new 0 0 512 512" xml:space="preserve" class=""><g><g><g fill="#d4f2f6"><circle cx="338.998" cy="483.009" r="15.453" fill="#d4f2f6"></circle><circle cx="407.894" cy="385.816" r="15.453" fill="#d4f2f6"></circle><circle cx="451.254" cy="450.374" r="15.453" fill="#d4f2f6"></circle><g><path d="m217.602 390.166c0-18.818-15.31-34.128-34.128-34.128h-44.117c-4.143 0-7.5 3.358-7.5 7.5s3.357 7.5 7.5 7.5h44.117c10.547 0 19.128 8.581 19.128 19.128 0 10.548-8.581 19.129-19.128 19.129h-167.939c-4.143 0-7.5 3.358-7.5 7.5s3.357 7.5 7.5 7.5h167.938c18.819-.001 34.129-15.311 34.129-34.129z" fill="#d4f2f6"></path><path d="m316.341 370.816h-23.981c-4.143 0-7.5 3.358-7.5 7.5s3.357 7.5 7.5 7.5h23.981c8.357 0 15.157 6.799 15.157 15.157s-6.8 15.158-15.157 15.158h-70.621c-4.143 0-7.5 3.358-7.5 7.5s3.357 7.5 7.5 7.5h70.621c16.629 0 30.157-13.529 30.157-30.158s-13.528-30.157-30.157-30.157z" fill="#d4f2f6"></path><path d="m231.646 443.743h-167.938c-4.143 0-7.5 3.358-7.5 7.5s3.357 7.5 7.5 7.5h167.938c10.548 0 19.129 8.581 19.129 19.128 0 10.548-8.581 19.129-19.129 19.129h-44.116c-4.143 0-7.5 3.358-7.5 7.5s3.357 7.5 7.5 7.5h44.116c18.818 0 34.129-15.31 34.129-34.129 0-18.818-15.31-34.128-34.129-34.128z" fill="#d4f2f6"></path></g></g><g><path d="m428.019 159.515c-1.944 0-3.87.078-5.779.213-.957.068-1.771-.657-1.819-1.615-2.255-44.649-39.118-80.162-84.295-80.162-4.333 0-8.583.345-12.739.979-.895.137-1.749-.383-2.036-1.242-15.142-45.154-57.764-77.688-107.985-77.688-62.895 0-112.707 51.035-113.882 113.964-.011.565.066.997-.36 1.075-25.945 5.355-45.079 28.266-45.079 55.816 0 4.828.61 9.512 1.74 13.99.137.543-.191 1.083-.735 1.213-31.567 7.516-55.05 35.898-55.05 69.787 0 39.628 32.102 71.753 71.701 71.753h356.318c46.382 0 83.981-37.627 83.981-84.041s-37.6-84.042-83.981-84.042z" fill="#eaf9fa"></path><path d="m199.783 210.143s68.084-51.233 142.109 19.883c1.435 1.379 3.803.09 3.417-1.863-3.519-17.828-28.071-70.202-89.309-64.364-42.542 4.055-56.217 46.344-56.217 46.344z" fill="#d4f2f6"></path><path d="m428.019 159.515c-1.944 0-3.87.078-5.779.213-.957.068-1.771-.657-1.819-1.615-2.255-44.649-39.118-80.162-84.295-80.162-4.333 0-8.583.345-12.739.979-.895.137-1.749-.383-2.036-1.242-15.142-45.154-57.764-77.688-107.985-77.688-12.618 0-24.756 2.058-36.1 5.85.083 0 .166-.003.249-.003 50.772 0 111.364 31.157 121.721 93.874 2.921 14.085 23.63 22.054 28.012 24.183 1.894-7.464 2.527-18.337 0-32.687 33.049 1.296 65.294 61.885 59.505 79.13 13.13-6.547 17.881-8.216 20.42-8.216 46.382 0 68.976 40.858 68.976 87.272 0 35.542-22.058 65.908-53.213 78.195h5.082c46.382 0 83.981-37.627 83.981-84.041s-37.599-84.042-83.98-84.042z" fill="#d4f2f6"></path><g fill="#cbe5e8"><path d="m136.776 227.403c-.97.42-1.98.62-2.97.62-2.9 0-5.67-1.7-6.89-4.53-10.18-23.54-33.32-38.75-58.95-38.75-4.3 0-8.58.42-12.75 1.26.44-.19.69-.68.57-1.16-1.12-4.45-1.73-9.09-1.74-13.88 4.58-.81 9.24-1.22 13.92-1.22 31.61 0 60.16 18.76 72.72 47.8 1.64 3.8-.11 8.21-3.91 9.86z" fill="#cbe5e8"></path><path d="m422.026 159.713c-13.88 1.3-27.01 6.3-38.27 14.64-1.31.97-2.82 1.45-4.33 1.48-2.34.04-4.66-1.01-6.16-3.04-2.47-3.33-1.77-8.02 1.56-10.49 12.97-9.61 28-15.52 43.89-17.32.9 4.27 1.47 8.65 1.7 13.13.05.89.76 1.57 1.61 1.6z" fill="#cbe5e8"></path><path d="m340.946 108.793c0 4.14-.21 8.32-.63 12.41-.39 3.86-3.65 6.74-7.45 6.74-.25 0-.51-.01-.77-.04-4.12-.42-7.12-4.1-6.7-8.22.36-3.59.55-7.25.55-10.89 0-10.83-1.61-21.46-4.79-31.66.07.18.13.37.19.55.29.86 1.14 1.38 2.04 1.25 4.16-.64 8.41-.98 12.74-.98.29 0 .58 0 .87.01 2.63 10.01 3.95 20.33 3.95 30.83z" fill="#cbe5e8"></path><path d="m98.876 152.273c-.72.21-1.44.31-2.16.31-3.22 0-6.21-2.1-7.18-5.35-2.63-8.8-4.25-17.89-4.83-27.1 4.48-2.31 9.32-4.04 14.42-5.09.29-.06.35-.28.35-.6.19 9.7 1.68 19.27 4.43 28.49 1.19 3.97-1.06 8.15-5.03 9.34z" fill="#cbe5e8"></path><path d="m326.819 183.44c-10.266-11.748-23.672-20.147-38.771-24.291-20.475-5.62-41.913-2.922-60.36 7.593-18.448 10.515-31.699 27.588-37.313 48.076-1.095 3.995 1.257 8.121 5.251 9.215.664.182 1.331.269 1.986.269 3.296 0 6.316-2.188 7.229-5.52 4.556-16.624 15.307-30.478 30.274-39.008 14.966-8.529 32.353-10.717 48.963-6.16 12.25 3.362 23.124 10.173 31.446 19.696 2.726 3.121 7.464 3.438 10.583.712s3.438-7.463.712-10.582z" fill="#cbe5e8"></path></g></g></g></g></svg>