<svg xmlns="http://www.w3.org/2000/svg" version="1.1" width="512" height="512" x="0" y="0" viewBox="0 0 512 512" style="enable-background:new 0 0 512 512" xml:space="preserve" class=""><g><g id="_x33__Cloudy"><g id="XMLID_1337_"><g id="XMLID_1326_"><g id="XMLID_1327_"><path id="XMLID_1336_" d="m181 101.5c-60.654 0-110 49.346-110 110 0 19.048 4.951 37.823 14.317 54.293 1.843 3.241 5.223 5.058 8.702 5.058 1.675 0 3.374-.422 4.934-1.309l192.02-56.065c.024-.651.026-1.314.026-1.978.001-60.653-49.345-109.999-109.999-109.999z" fill="#ffe782" ></path><g id="XMLID_1334_"><path id="XMLID_1335_" d="m181 82c-5.523 0-10-4.477-10-10v-30c0-5.523 4.477-10 10-10s10 4.477 10 10v30c0 5.523-4.477 10-10 10z" fill="#ffd134" ></path></g><g id="XMLID_1332_"><path id="XMLID_1333_" d="m279.995 122.505c-2.56 0-5.118-.977-7.071-2.929-3.905-3.905-3.905-10.237 0-14.143l21.213-21.213c3.906-3.904 10.236-3.904 14.143 0 3.905 3.905 3.905 10.237 0 14.143l-21.213 21.213c-1.954 1.952-4.512 2.929-7.072 2.929z" fill="#ffd134" ></path></g><g id="XMLID_1330_"><path id="XMLID_1331_" d="m41 222h-30c-5.523 0-10-4.477-10-10s4.477-10 10-10h30c5.523 0 10 4.477 10 10s-4.477 10-10 10z" fill="#ffd134"></path></g><g id="XMLID_1328_"><path id="XMLID_1329_" d="m82.005 122.505c-2.559 0-5.119-.977-7.071-2.929l-21.213-21.213c-3.905-3.905-3.905-10.237 0-14.143 3.905-3.904 10.237-3.904 14.143 0l21.213 21.213c3.905 3.905 3.905 10.237 0 14.143-1.954 1.952-4.513 2.929-7.072 2.929z" fill="#ffd134" ></path></g></g></g><g id="XMLID_1232_"><path id="XMLID_1244_" d="m467.032 240.163c-12.6-18.016-32.872-28.673-54.999-28.723-16.357-20.051-41.027-31.87-67.043-31.87-22.206 0-43.313 8.406-59.49 23.72l-4.42 4.248c-3.982 3.827-4.107 10.158-.28 14.14l199.001 123.745c1.924 1.779 4.358 2.658 6.787 2.658 2.69 0 5.373-1.08 7.344-3.211 11.007-11.904 17.068-27.42 17.068-43.72 0-27.854-17.889-52.386-43.968-60.987z" fill="#d6e9ff" ></path><g id="XMLID_1241_"><g id="XMLID_264_"><path id="XMLID_271_" d="m416 480h-320c-52.278 0-95-42.347-95-94.467 0-.035 0-.069 0-.104v-.214c0-.034 0-.068 0-.103.123-37.161 21.508-70.318 54.956-85.832 13.348-40.779 51.749-68.85 95.044-68.85 6.622 0 13.212.649 19.66 1.934 23.675-20.634 53.77-31.934 85.34-31.934 40.024 0 77.931 18.602 102.497 50.032.839-.021 1.674-.032 2.503-.032 33.611 0 64.347 16.447 82.993 44.203 39.599 12.174 66.938 48.831 67.007 90.53v.053.107.052c-.089 52.189-42.671 94.625-95 94.625z" fill="#edf5ff"></path></g></g></g></g></g></g></svg>