<svg xmlns="http://www.w3.org/2000/svg" version="1.1" width="512" height="512" x="0" y="0" viewBox="0 0 128 128" style="enable-background:new 0 0 512 512" xml:space="preserve" class=""><g><linearGradient id="a" gradientUnits="userSpaceOnUse" x1="117.794" x2="10.207" y1="128.068" y2="20.481"><stop offset="0" stop-color="#db90e8"></stop><stop offset="1" stop-color="#76e2f8"></stop></linearGradient><path d="m123.443 121.693a1.749 1.749 0 0 1 -1.75 1.75 15.947 15.947 0 0 1 -9.615-3.222 15.959 15.959 0 0 1 -19.231 0 15.96 15.96 0 0 1 -19.232 0 15.959 15.959 0 0 1 -19.231 0 15.959 15.959 0 0 1 -19.231 0 15.959 15.959 0 0 1 -19.231 0 15.947 15.947 0 0 1 -9.615 3.222 1.75 1.75 0 0 1 0-3.5 12.489 12.489 0 0 0 8.435-3.286 1.75 1.75 0 0 1 2.361 0 12.469 12.469 0 0 0 16.87 0 1.75 1.75 0 0 1 2.361 0 12.468 12.468 0 0 0 16.87 0 1.748 1.748 0 0 1 2.36 0 12.468 12.468 0 0 0 16.871 0 1.75 1.75 0 0 1 2.361 0 12.466 12.466 0 0 0 16.87 0 1.75 1.75 0 0 1 2.361 0 12.465 12.465 0 0 0 16.869 0 1.751 1.751 0 0 1 2.362 0 12.483 12.483 0 0 0 8.435 3.287 1.75 1.75 0 0 1 1.75 1.749zm-37.183-37.428a1.753 1.753 0 0 0 2.229 1.075 15.957 15.957 0 0 0 4.359-2.333 15.957 15.957 0 0 0 19.23 0 15.947 15.947 0 0 0 9.615 3.222 1.75 1.75 0 0 0 0-3.5 12.478 12.478 0 0 1 -8.434-3.286 1.753 1.753 0 0 0 -2.363 0 12.466 12.466 0 0 1 -16.869 0 1.75 1.75 0 0 0 -2.361 0 12.494 12.494 0 0 1 -4.331 2.593 1.75 1.75 0 0 0 -1.075 2.229zm-79.953 1.964a15.962 15.962 0 0 0 9.616-3.221 15.963 15.963 0 0 0 19.231 0 15.959 15.959 0 0 0 19.23 0 15.957 15.957 0 0 0 19.23 0 15.914 15.914 0 0 0 4.359 2.333 1.75 1.75 0 0 0 1.154-3.305 12.476 12.476 0 0 1 -4.327-2.594 1.75 1.75 0 0 0 -2.361 0 12.468 12.468 0 0 1 -16.871 0 1.748 1.748 0 0 0 -2.36 0 12.47 12.47 0 0 1 -16.872 0 1.747 1.747 0 0 0 -2.359 0 12.47 12.47 0 0 1 -16.871 0 1.748 1.748 0 0 0 -2.36 0 12.484 12.484 0 0 1 -8.435 3.286 1.75 1.75 0 0 0 0 3.5zm115.386 15.107a12.491 12.491 0 0 1 -8.436-3.286 1.75 1.75 0 0 0 -2.361 0 12.466 12.466 0 0 1 -16.869 0 1.75 1.75 0 0 0 -2.361 0 12.468 12.468 0 0 1 -16.87 0 1.75 1.75 0 0 0 -2.361 0 12.468 12.468 0 0 1 -16.87 0 1.75 1.75 0 0 0 -2.361 0 12.532 12.532 0 0 1 -5.8 3.008 1.75 1.75 0 1 0 .738 3.421 15.992 15.992 0 0 0 6.243-2.865 15.957 15.957 0 0 0 19.231 0 15.958 15.958 0 0 0 19.232 0 15.957 15.957 0 0 0 19.231 0 15.958 15.958 0 0 0 9.615 3.222 1.75 1.75 0 0 0 0-3.5zm-85.358-3.286a1.75 1.75 0 0 0 -2.361 2.584 16.221 16.221 0 0 0 3.559 2.468 1.751 1.751 0 0 0 1.59-3.12 12.573 12.573 0 0 1 -2.788-1.932zm-30.028 6.786a15.963 15.963 0 0 0 9.616-3.222 15.956 15.956 0 0 0 9.615 3.222q.68 0 1.344-.056a1.75 1.75 0 0 0 -.294-3.488q-.519.043-1.05.044a12.491 12.491 0 0 1 -8.438-3.286 1.748 1.748 0 0 0 -2.36 0 12.489 12.489 0 0 1 -8.435 3.286 1.75 1.75 0 0 0 0 3.5zm92.087-51.736 2.318-2.317v17.63a1.75 1.75 0 0 0 3.5 0v-17.634l2.317 2.317a1.75 1.75 0 1 0 2.471-2.475l-5.305-5.3a1.75 1.75 0 0 0 -2.474 0l-5.3 5.3a1.75 1.75 0 0 0 2.473 2.479zm-34.394 17.059a1.75 1.75 0 0 0 1.75-1.75v-17.63l2.317 2.321a1.75 1.75 0 0 0 2.475-2.475l-5.305-5.3a1.75 1.75 0 0 0 -2.474 0l-5.3 5.3a1.75 1.75 0 0 0 2.47 2.475l2.317-2.317v17.63a1.75 1.75 0 0 0 1.75 1.746zm-39.7-24.842-5.3 5.3a1.75 1.75 0 0 0 2.471 2.483l2.317-2.317v17.63a1.75 1.75 0 0 0 3.5 0v-17.634l2.317 2.321a1.75 1.75 0 1 0 2.475-2.475l-5.3-5.3a1.75 1.75 0 0 0 -2.48-.008zm52.359-13.3a6.571 6.571 0 1 1 6.571 6.57 6.58 6.58 0 0 1 -6.57-6.571zm3.5 0a3.071 3.071 0 1 0 3.071-3.072 3.074 3.074 0 0 0 -3.07 3.071zm20.552-12.757a6.571 6.571 0 1 1 6.571 6.571 6.578 6.578 0 0 1 -6.57-6.572zm3.5 0a3.071 3.071 0 1 0 3.071-3.07 3.075 3.075 0 0 0 -3.07 3.069zm-90.066 0a6.571 6.571 0 1 1 6.571 6.571 6.578 6.578 0 0 1 -6.57-6.572zm3.5 0a3.071 3.071 0 1 0 3.071-3.07 3.075 3.075 0 0 0 -3.07 3.069zm20.555 12.756a6.571 6.571 0 1 1 6.571 6.57 6.58 6.58 0 0 1 -6.571-6.57zm3.5 0a3.071 3.071 0 1 0 3.071-3.072 3.074 3.074 0 0 0 -3.071 3.072zm14.232-19.391a8.068 8.068 0 1 1 8.068 8.067 8.077 8.077 0 0 1 -8.068-8.067zm3.5 0a4.568 4.568 0 1 0 4.568-4.568 4.572 4.572 0 0 0 -4.568 4.568z" fill="url(#a)" ></path></g></svg>