<svg xmlns="http://www.w3.org/2000/svg" version="1.1" width="512" height="512" x="0" y="0" viewBox="0 0 64 64" style="enable-background:new 0 0 512 512" xml:space="preserve" class=""><g><g fill="rgb(0,0,0)" opacity=".5"><path d="m49 18c-.2 0-.3 0-.5 0-2.7-5.9-8.6-10-15.5-10-8.5 0-15.6 6.3-16.8 14.5-1-.3-2.1-.5-3.2-.5-5.7 0-10.4 4.4-11 10h60c0-7.2-5.8-14-13-14z" fill="#000000" ></path><path d="m62 36h-60c-1.1 0-2 .9-2 2s.9 2 2 2h60c1.1 0 2-.9 2-2s-.9-2-2-2z" fill="#000000" ></path><path d="m58 44h-50c-1.1 0-2 .9-2 2s.9 2 2 2h50c1.1 0 2-.9 2-2s-.9-2-2-2z" fill="#000000" ></path><path d="m28 52h-16c-1.1 0-2 .9-2 2s.9 2 2 2h16c1.1 0 2-.9 2-2s-.9-2-2-2z" fill="#000000" ></path><path d="m56 52h-20c-1.1 0-2 .9-2 2s.9 2 2 2h20c1.1 0 2-.9 2-2s-.9-2-2-2z" fill="#000000" ></path></g></g></svg>