<svg xmlns="http://www.w3.org/2000/svg" version="1.1"  width="512" height="512" x="0" y="0" viewBox="0 0 512 512" style="enable-background:new 0 0 512 512" xml:space="preserve" class=""><g>
<path style="" d="M407,512H105C47.103,512,0,464.897,0,407V105C0,47.103,47.103,0,105,0h302
	c57.897,0,105,47.103,105,105v302C512,464.897,464.897,512,407,512z" fill="#00c3ff" class=""></path>
<path style="" d="M407,0H256v512h151c57.897,0,105-47.103,105-105V105C512,47.103,464.897,0,407,0z" fill="#00aaf0" ></path>
<circle style="" cx="166" cy="211" r="80" fill="#ffea84"></circle>
<path style="" d="M356,241c-7.617,0-14.895,1.434-21.599,4.023C326.997,208.496,294.711,181,256,181
	c-44.183,0-80,35.817-80,80c0,3.718,0.274,7.37,0.765,10.952C156.343,276.213,141,294.313,141,316c0,24.853,20.147,45,45,45
	c17.904,0,146.029,0,170,0c33.137,0,60-26.863,60-60S389.137,241,356,241z" fill="#ffffff"  class=""></path>
<path style="" d="M356,241c-7.617,0-14.895,1.434-21.599,4.023C326.997,208.496,294.711,181,256,181v180
	c40.947,0,86.643,0,100,0c33.137,0,60-26.863,60-60S389.137,241,356,241z" fill="#f2f2f2"  class=""></path></g></svg>