<svg xmlns="http://www.w3.org/2000/svg" version="1.1" width="512" height="512" x="0" y="0" viewBox="0 0 48 48" style="enable-background:new 0 0 512 512" xml:space="preserve" class=""><g><g id="Overcast" transform="matrix(2 0 0 2 0 -.236)"><g transform="matrix(.863 0 0 .863 -.19 2.705)"><path d="m6.062 7.354c.356-2.129 2.209-3.754 4.438-3.754 1.508 0 2.844.744 3.661 1.884.255-.118.54-.184.839-.184.887 0 1.64.579 1.902 1.379.279-.052.567-.079.862-.079 2.594 0 4.7 2.106 4.7 4.7s-2.106 4.7-4.7 4.7h-12.764c-1.656 0-3-1.344-3-3 0-1.242.756-2.308 1.832-2.764-.148-.279-.232-.598-.232-.936 0-1.104.896-2 2-2 .159 0 .314.019.462.054z" fill="#666666" ></path></g><g transform="matrix(.544 0 0 .544 10.246 9.721)"><path d="m6.062 7.354c.356-2.129 2.209-3.754 4.438-3.754 1.508 0 2.844.744 3.661 1.884.255-.118.54-.184.839-.184.887 0 1.64.579 1.902 1.379.279-.052.567-.079.862-.079 2.594 0 4.7 2.106 4.7 4.7s-2.106 4.7-4.7 4.7h-12.764c-1.656 0-3-1.344-3-3 0-1.242.756-2.308 1.832-2.764-.148-.279-.232-.598-.232-.936 0-1.104.896-2 2-2 .159 0 .314.019.462.054z" fill="#9f9f9f" ></path></g></g></g></svg>