<svg xmlns="http://www.w3.org/2000/svg" version="1.1" width="512" height="512" x="0" y="0" viewBox="0 0 512 512" style="enable-background:new 0 0 512 512" xml:space="preserve" class=""><g><g><path d="m414.466 107.471h-24.358c-19.355-59.945-75.604-103.31-141.99-103.31-81.061 0-147.021 64.65-149.135 145.201h-22.394c-42.299-.001-76.589 34.289-76.589 76.588 0 42.299 34.29 76.589 76.589 76.589h337.877c53.867 0 97.534-43.668 97.534-97.534 0-53.866-43.668-97.534-97.534-97.534z" fill="#365e7d"></path><path d="m286.407 9.134c-25.191 6.653-47.774 19.753-65.88 37.426-26.886 26.231-43.904 62.521-44.959 102.81h-22.392c-42.305 0-76.58 34.291-76.58 76.58 0 21.161 8.573 40.305 22.424 54.156 13.851 13.867 33.012 22.44 54.156 22.44h-76.58c-21.144 0-40.305-8.573-54.156-22.44-13.867-13.85-22.44-32.995-22.44-54.156 0-42.288 34.291-76.58 76.596-76.58h22.392c1.056-40.289 18.073-76.58 44.96-102.81 26.886-26.246 63.64-42.4 104.17-42.4 13.242 0 26.069 1.727 38.289 4.974z" fill="#2b4d66"></path><g fill="#ffd064"><path d="m208.843 171.742-34.345 145.014c-.833 3.518 1.835 6.891 5.45 6.891h49.911c3.5 0 6.142 3.174 5.508 6.615l-21.651 117.536c-1.14 6.19 7.221 9.264 10.362 3.809l96.06-166.84c2.15-3.734-.545-8.395-4.854-8.395h-38.88c-4.145 0-6.854-4.346-5.028-8.067l45.527-92.805c1.826-3.721-.883-8.067-5.028-8.067h-97.58c-2.598-.001-4.853 1.783-5.452 4.309z" fill="#ffd064"></path><path d="m335.538 354.346-18.649 78.738c-.452 1.91.996 3.742 2.959 3.742h27.1c1.9 0 3.335 1.723 2.991 3.592l-11.756 63.818c-.619 3.361 3.921 5.03 5.626 2.068l52.158-90.589c1.167-2.027-.296-4.558-2.635-4.558h-21.111c-2.251 0-3.721-2.36-2.73-4.38l24.72-50.39c.991-2.021-.48-4.38-2.73-4.38h-52.983c-1.41-.001-2.635.968-2.96 2.339z" fill="#ffd064"></path></g></g></g></svg>